<svg xmlns="http://www.w3.org/2000/svg" viewBox="0 0 74.77 77.8"><defs><style>.cls-1{fill:#4fc1a0;}</style></defs><g id="Capa_2" data-name="Capa 2"><g id="Graphic_Elements" data-name="Graphic Elements"><path class="cls-1" d="M34.7,39.26c3.84,6.75,8.83,12.27,14,15.56l.1.06L74.41,19.54a1.92,1.92,0,0,0-1.51-3l-44.26-1C27.79,21.82,29.86,30.76,34.7,39.26Z"/><path class="cls-1" d="M45.05,57.36a50.32,50.32,0,0,1-14-16c-5.27-9.25-7.48-18.69-6.62-25.93L2,14.86A1.91,1.91,0,0,0,.61,18.17l23.11,21.6a7.69,7.69,0,0,1,2.4,4.85l3.22,31.46a1.91,1.91,0,0,0,3.45.93L46.38,58.25C45.93,58,45.49,57.67,45.05,57.36Z"/><path class="cls-1" d="M47,54.66a50.13,50.13,0,0,1-14-16c-9-15.79-9.09-32.11-.23-37.16S55.63,4.82,64.62,20.61a53.37,53.37,0,0,1,6.07,15.84,2.07,2.07,0,1,1-4.07.81A49.41,49.41,0,0,0,61,22.66C53.44,9.36,41.45,1.3,34.83,5.07S29,23.26,36.61,36.56c3.84,6.75,8.82,12.28,14,15.57,4.8,3,9.12,3.76,12.16,2s4.14-5.75,4.4-8.74a2.07,2.07,0,1,1,4.13.35c-.47,5.63-2.77,9.89-6.47,12-4.44,2.53-10.28,1.77-16.44-2.13C47.93,55.33,47.44,55,47,54.66Z"/></g></g></svg>