<svg xmlns="http://www.w3.org/2000/svg" viewBox="0 0 591.6 84.99"><defs><style>.cls-1{fill:#4fc1a0;}.cls-2{fill:#cc3e3e;}</style></defs><g id="Capa_2" data-name="Capa 2"><g id="Graphic_Elements" data-name="Graphic Elements"><path class="cls-1" d="M143.31,96.73,93.86,17.31,71.26,53.62,48.66,17.31,0,95.47H6.33l42.33-68L68.09,58.7l-23.67,38ZM93.86,27.47l39.77,63.89H94.76L74.42,58.7ZM88.43,91.36H54.09L71.26,63.78Z" transform="translate(0 -11.75)"/><path class="cls-2" d="M199,29.31H174.77v66H158.46v-66H134.53V16.1H199Z" transform="translate(0 -11.75)"/><path class="cls-2" d="M236.82,51.17a42.57,42.57,0,0,0-5.65-.43q-8.92,0-11.7,6v38.5H203.76V36.43H218.6l.44,7q4.72-8.1,13.11-8.1a16.47,16.47,0,0,1,4.89.7Z" transform="translate(0 -11.75)"/><path class="cls-2" d="M276.85,95.27A17.37,17.37,0,0,1,275.27,90a19,19,0,0,1-14.85,6.36q-8.64,0-14.33-5a16.12,16.12,0,0,1-5.68-12.62q0-9.34,6.93-14.35t20-5.06h7.24V56a9.68,9.68,0,0,0-2.1-6.53c-1.39-1.63-3.6-2.45-6.6-2.45a9.35,9.35,0,0,0-6.23,1.91,6.45,6.45,0,0,0-2.26,5.22H241.72a15.79,15.79,0,0,1,3.15-9.46,20.87,20.87,0,0,1,8.92-6.83,32.49,32.49,0,0,1,12.94-2.47q10.88,0,17.27,5.46t6.39,15.36V81.68q0,8.37,2.34,12.67v.92Zm-13-10.93a13.48,13.48,0,0,0,6.42-1.55,10.25,10.25,0,0,0,4.35-4.16V68.52h-5.88q-11.79,0-12.56,8.16l-.05.92a6.31,6.31,0,0,0,2.06,4.84A8,8,0,0,0,263.85,84.34Z" transform="translate(0 -11.75)"/><path class="cls-2" d="M323.67,76.08,334.6,36.43H351L331.17,95.27h-15L296.31,36.43h16.43Z" transform="translate(0 -11.75)"/><path class="cls-2" d="M385,96.36q-12.94,0-21.08-7.94T355.8,67.27V65.75a35.64,35.64,0,0,1,3.43-15.86,25.14,25.14,0,0,1,9.71-10.76,27.24,27.24,0,0,1,14.33-3.78q12.08,0,19,7.61t6.94,21.59V71H371.74a14.63,14.63,0,0,0,4.59,9.24A13.92,13.92,0,0,0,386,83.69q9.07,0,14.19-6.58L408,85.76a23.66,23.66,0,0,1-9.58,7.8A31.32,31.32,0,0,1,385,96.36ZM383.21,48a9.78,9.78,0,0,0-7.58,3.17q-2.91,3.16-3.73,9.06h21.86V59c-.07-3.5-1-6.2-2.83-8.12S386.55,48,383.21,48Z" transform="translate(0 -11.75)"/><path class="cls-2" d="M434.71,95.27H418.94V11.75h15.77Z" transform="translate(0 -11.75)"/><path class="cls-2" d="M466,95.27H449.72V16.1H466Z" transform="translate(0 -11.75)"/><path class="cls-2" d="M494.58,36.43l.49,6.8q6.31-7.87,16.91-7.88,9.36,0,13.93,5.49t4.67,16.42v38H514.87V57.64q0-5-2.18-7.26t-7.23-2.25a10.81,10.81,0,0,0-9.95,5.65V95.27H479.79V36.43Z" transform="translate(0 -11.75)"/><path class="cls-2" d="M567,83.69A10.33,10.33,0,0,0,574,81.3a8.4,8.4,0,0,0,2.83-6.36H591.6a20.17,20.17,0,0,1-3.27,11,21.57,21.57,0,0,1-8.78,7.73,27.47,27.47,0,0,1-12.32,2.74q-12.62,0-19.9-8T540,66.18v-1q0-13.61,7.24-21.7t19.85-8.1q11,0,17.7,6.28t6.77,16.72H576.86A10.79,10.79,0,0,0,574,50.89,10.51,10.51,0,0,0,558.56,52q-2.8,4-2.8,13v1.63q0,9.1,2.77,13.07T567,83.69Z" transform="translate(0 -11.75)"/></g></g></svg>