<svg xmlns="http://www.w3.org/2000/svg" viewBox="0 0 520.69 99.87"><defs><style>.cls-1{fill:#4fc1a0;}.cls-2{fill:#ff4545;}</style></defs><g id="Capa_2" data-name="Capa 2"><g id="Graphic_Elements" data-name="Graphic Elements"><path class="cls-1" d="M480.62,39.26c3.84,6.75,8.83,12.27,14,15.56l.09.06,25.6-35.34a1.92,1.92,0,0,0-1.51-3l-44.27-1C473.7,21.82,475.78,30.76,480.62,39.26Z"/><path class="cls-1" d="M491,57.36a50.19,50.19,0,0,1-14-16c-5.27-9.25-7.48-18.69-6.62-25.93l-22.51-.52a1.91,1.91,0,0,0-1.35,3.31l23.1,21.6A7.71,7.71,0,0,1,472,44.62l3.22,31.46a1.91,1.91,0,0,0,3.45.93L492.3,58.25C491.85,58,491.41,57.67,491,57.36Z"/><path class="cls-1" d="M492.88,54.66a50.15,50.15,0,0,1-14-16c-9-15.79-9.09-32.11-.22-37.16s22.85,3.36,31.84,19.15a53.65,53.65,0,0,1,6.07,15.84,2.07,2.07,0,1,1-4.07.81,49.41,49.41,0,0,0-5.6-14.6C499.36,9.36,487.37,1.3,480.75,5.07s-5.8,18.19,1.78,31.49c3.84,6.75,8.82,12.28,14,15.57,4.8,3,9.12,3.76,12.16,2s4.14-5.75,4.4-8.74a2.07,2.07,0,1,1,4.13.35c-.48,5.63-2.77,9.89-6.47,12-4.44,2.53-10.28,1.77-16.44-2.13C493.84,55.33,493.36,55,492.88,54.66Z"/><path class="cls-2" d="M64.5,32.82H40.24v66H23.93v-66H0V19.61H64.5Z"/><path class="cls-2" d="M102.29,54.68a42.71,42.71,0,0,0-5.66-.43q-8.91,0-11.69,6v38.5H69.23V39.94H84.07l.44,7q4.72-8.1,13.1-8.1a16.58,16.58,0,0,1,4.9.7Z"/><path class="cls-2" d="M142.31,98.78a17.38,17.38,0,0,1-1.57-5.27,19,19,0,0,1-14.85,6.36q-8.64,0-14.33-5a16.09,16.09,0,0,1-5.68-12.62q0-9.34,6.93-14.36t20-5h7.23V59.47A9.73,9.73,0,0,0,138,52.94q-2.1-2.44-6.61-2.45a9.34,9.34,0,0,0-6.22,1.91,6.45,6.45,0,0,0-2.26,5.22H107.18a15.78,15.78,0,0,1,3.16-9.47,20.79,20.79,0,0,1,8.92-6.82,32.46,32.46,0,0,1,12.94-2.47q10.88,0,17.26,5.46t6.39,15.36V85.19q.06,8.37,2.34,12.67v.92Zm-13-10.93a13.52,13.52,0,0,0,6.41-1.55,10.13,10.13,0,0,0,4.35-4.16V72h-5.87q-11.81,0-12.56,8.15l-.06.93A6.29,6.29,0,0,0,123.66,86,8,8,0,0,0,129.32,87.85Z"/><path class="cls-2" d="M189.13,79.59l10.93-39.65h16.43L196.64,98.78h-15L161.78,39.94H178.2Z"/><path class="cls-2" d="M250.47,99.87q-12.93,0-21.07-7.94t-8.13-21.15V69.25A35.49,35.49,0,0,1,224.7,53.4a25.21,25.21,0,0,1,9.7-10.77,27.35,27.35,0,0,1,14.33-3.77q12.07,0,19,7.61t6.93,21.59v6.41H237.21a14.53,14.53,0,0,0,4.59,9.25,13.9,13.9,0,0,0,9.71,3.48q9.08,0,14.19-6.58l7.72,8.65a23.57,23.57,0,0,1-9.57,7.8A31.34,31.34,0,0,1,250.47,99.87Zm-1.79-48.34a9.83,9.83,0,0,0-7.59,3.16q-2.91,3.18-3.72,9.07h21.86V62.5c-.07-3.49-1-6.19-2.83-8.11S252,51.53,248.68,51.53Z"/><path class="cls-2" d="M300.18,98.78H284.41V15.25h15.77Z"/><path class="cls-2" d="M331.5,98.78H315.19V19.61H331.5Z"/><path class="cls-2" d="M360.05,39.94l.49,6.8q6.3-7.89,16.91-7.88,9.36,0,13.92,5.49t4.68,16.42v38H380.33V61.15q0-5-2.17-7.26c-1.45-1.5-3.86-2.26-7.23-2.26a10.83,10.83,0,0,0-10,5.66V98.78H345.26V39.94Z"/><path class="cls-2" d="M432.43,87.2a10.33,10.33,0,0,0,7.07-2.39,8.44,8.44,0,0,0,2.83-6.37h14.73a20.11,20.11,0,0,1-3.26,11A21.54,21.54,0,0,1,445,97.12a27.51,27.51,0,0,1-12.32,2.75q-12.61,0-19.9-8t-7.29-22.16v-1q0-13.6,7.23-21.7t19.85-8.1q11,0,17.7,6.28t6.77,16.72H442.33a10.84,10.84,0,0,0-2.83-7.46,9.41,9.41,0,0,0-7.18-2.87q-5.49,0-8.29,4t-2.8,13v1.63q0,9.1,2.77,13.07T432.43,87.2Z"/></g></g></svg>